<svg version="1.1" xmlns="http://www.w3.org/2000/svg" xmlns:xlink="http://www.w3.org/1999/xlink" width="307.25613" height="54.45945" viewBox="0,0,307.25613,54.45945"><g transform="translate(-46.90196,-156.37163)"><g data-paper-data="{&quot;isPaintingLayer&quot;:true}" fill-rule="nonzero" stroke="none" stroke-linecap="butt" stroke-linejoin="miter" stroke-miterlimit="10" stroke-dasharray="" stroke-dashoffset="0" style="mix-blend-mode: normal"><path d="M300.81081,207.77778v-51.05105h52.55255v51.05105z" fill="#ffffff" stroke-width="0"/><path d="M347.89363,194.80963l-3.859,-4.036l5.576,-5.337l1.945,-1.862l3.866,4.035l-3.366,3.219l-0.799,0.765z" fill="#000000" stroke-width="1" visibility="hidden"/><path d="M351.04644,159.4827h-48.23675v48.23675h48.23675v-48.23675M351.68506,156.37164c0.66498,0 1.24569,0.19032 1.73984,0.56982c0.48612,0.39497 0.7332,0.84326 0.7332,1.37524v50.56933c0,0.52396 -0.2465,0.9797 -0.7332,1.36779c-0.49357,0.38752 -1.07486,0.57727 -1.73984,0.57727h-49.51339c-0.66498,0 -1.24569,-0.18975 -1.73984,-0.57727c-0.48612,-0.3881 -0.7332,-0.84383 -0.7332,-1.36779v-50.56933c0,-0.53198 0.24707,-0.98027 0.7332,-1.37524c0.49415,-0.3795 1.07486,-0.56982 1.73984,-0.56982z" fill="#000000" stroke-width="1"/><text transform="translate(47.15196,186.00001) scale(0.5,0.5)" font-size="40" xml:space="preserve" fill="#000000" fill-rule="nonzero" stroke="none" stroke-width="1" stroke-linecap="butt" stroke-linejoin="miter" stroke-miterlimit="10" stroke-dasharray="" stroke-dashoffset="0" font-family="Sans Serif" font-weight="normal" text-anchor="start" style="mix-blend-mode: normal"><tspan x="0" dy="0">Mute notification sound</tspan></text></g></g></svg>