<svg version="1.1" xmlns="http://www.w3.org/2000/svg" xmlns:xlink="http://www.w3.org/1999/xlink" width="326.21854" height="61.66214" viewBox="0,0,326.21854,61.66214"><g transform="translate(-46.90196,-149.16894)"><g data-paper-data="{&quot;isPaintingLayer&quot;:true}" fill-rule="nonzero" stroke="none" stroke-linecap="butt" stroke-linejoin="miter" stroke-miterlimit="10" stroke-dasharray="" stroke-dashoffset="0" style="mix-blend-mode: normal"><path d="M300.81081,207.77778v-51.05106h52.55255v51.05106z" fill="#ffffff" stroke-width="0"/><path d="M347.89361,194.80961l-3.859,-4.036l5.576,-5.337l1.945,-1.862l3.866,4.035l-3.366,3.219l-0.799,0.765z" fill="#000000" stroke-width="1" visibility="hidden"/><path d="M351.04642,159.48269h-48.23675v48.23675h48.23675v-48.23675M351.68504,156.37163c0.66498,0 1.24569,0.19032 1.73984,0.56982c0.48612,0.39497 0.7332,0.84326 0.7332,1.37524v50.56933c0,0.52396 -0.2465,0.9797 -0.7332,1.36779c-0.49357,0.38752 -1.07486,0.57727 -1.73984,0.57727h-49.51339c-0.66498,0 -1.24569,-0.18975 -1.73984,-0.57727c-0.48612,-0.3881 -0.7332,-0.84383 -0.7332,-1.36779v-50.56933c0,-0.53198 0.24707,-0.98027 0.7332,-1.37524c0.49415,-0.3795 1.07486,-0.56982 1.73984,-0.56982z" fill="#000000" stroke-width="1"/><text transform="translate(47.15196,186) scale(0.5,0.5)" font-size="40" xml:space="preserve" fill="#000000" fill-rule="nonzero" stroke="none" stroke-width="1" stroke-linecap="butt" stroke-linejoin="miter" stroke-miterlimit="10" stroke-dasharray="" stroke-dashoffset="0" font-family="Sans Serif" font-weight="normal" text-anchor="start" style="mix-blend-mode: normal"><tspan x="0" dy="0">Mute notification sound</tspan></text><path d="M373.1205,156.23144l-3.53125,3.5625c-10.56432,10.5872 -22.23099,23.2079 -33,34l-3.1875,3.2188l-3.53125,-2.9063l-17,-14l-3.84375,-3.1875l6.34375,-7.71875l3.875,3.18755l13.4375,11.0625c9.72407,-9.8909 20.10964,-20.96361 29.84375,-30.7188l3.53125,-3.5625z" fill="#000000" stroke-width="1"/></g></g></svg>